<mxfile host="app.diagrams.net" agent="Mozilla/5.0 (Windows NT 10.0; Win64; x64) AppleWebKit/537.36 (KHTML, like Gecko) Chrome/132.0.0.0 Safari/537.36" version="26.0.13" pages="2">
  <diagram name="User Flow Chart" id="lEA_qKT3mthsEDez65N3">
    <mxGraphModel dx="1257" dy="683" grid="1" gridSize="10" guides="1" tooltips="1" connect="1" arrows="1" fold="1" page="1" pageScale="1" pageWidth="850" pageHeight="1100" math="0" shadow="0">
      <root>
        <mxCell id="0" />
        <mxCell id="1" parent="0" />
        <mxCell id="liC86JG7QrW3VDQCqqKZ-10" style="edgeStyle=orthogonalEdgeStyle;rounded=0;orthogonalLoop=1;jettySize=auto;html=1;entryX=0.5;entryY=0;entryDx=0;entryDy=0;" edge="1" parent="1" source="liC86JG7QrW3VDQCqqKZ-3" target="liC86JG7QrW3VDQCqqKZ-6">
          <mxGeometry relative="1" as="geometry" />
        </mxCell>
        <mxCell id="liC86JG7QrW3VDQCqqKZ-3" value="User" style="shape=umlActor;verticalLabelPosition=bottom;verticalAlign=top;html=1;outlineConnect=0;" vertex="1" parent="1">
          <mxGeometry x="600" y="50" width="30" height="60" as="geometry" />
        </mxCell>
        <mxCell id="liC86JG7QrW3VDQCqqKZ-8" style="edgeStyle=orthogonalEdgeStyle;rounded=0;orthogonalLoop=1;jettySize=auto;html=1;entryX=1;entryY=0.5;entryDx=0;entryDy=0;" edge="1" parent="1" source="liC86JG7QrW3VDQCqqKZ-6" target="liC86JG7QrW3VDQCqqKZ-11">
          <mxGeometry relative="1" as="geometry">
            <mxPoint x="220" y="169.9999999999999" as="targetPoint" />
          </mxGeometry>
        </mxCell>
        <mxCell id="liC86JG7QrW3VDQCqqKZ-9" value="NO" style="edgeLabel;html=1;align=center;verticalAlign=middle;resizable=0;points=[];" vertex="1" connectable="0" parent="liC86JG7QrW3VDQCqqKZ-8">
          <mxGeometry x="-0.6048" relative="1" as="geometry">
            <mxPoint as="offset" />
          </mxGeometry>
        </mxCell>
        <mxCell id="liC86JG7QrW3VDQCqqKZ-13" style="edgeStyle=orthogonalEdgeStyle;rounded=0;orthogonalLoop=1;jettySize=auto;html=1;exitX=0.5;exitY=1;exitDx=0;exitDy=0;entryX=0.5;entryY=0;entryDx=0;entryDy=0;" edge="1" parent="1" source="liC86JG7QrW3VDQCqqKZ-6" target="liC86JG7QrW3VDQCqqKZ-12">
          <mxGeometry relative="1" as="geometry" />
        </mxCell>
        <mxCell id="liC86JG7QrW3VDQCqqKZ-14" value="YES" style="edgeLabel;html=1;align=center;verticalAlign=middle;resizable=0;points=[];" vertex="1" connectable="0" parent="liC86JG7QrW3VDQCqqKZ-13">
          <mxGeometry x="-0.46" relative="1" as="geometry">
            <mxPoint as="offset" />
          </mxGeometry>
        </mxCell>
        <mxCell id="liC86JG7QrW3VDQCqqKZ-6" value="Is&amp;nbsp;&lt;div&gt;Registered?&lt;/div&gt;" style="rhombus;whiteSpace=wrap;html=1;" vertex="1" parent="1">
          <mxGeometry x="400" y="130" width="80" height="80" as="geometry" />
        </mxCell>
        <mxCell id="liC86JG7QrW3VDQCqqKZ-11" value="Create account using mobile number" style="rounded=1;whiteSpace=wrap;html=1;" vertex="1" parent="1">
          <mxGeometry x="90" y="140" width="120" height="60" as="geometry" />
        </mxCell>
        <mxCell id="liC86JG7QrW3VDQCqqKZ-16" style="edgeStyle=orthogonalEdgeStyle;rounded=0;orthogonalLoop=1;jettySize=auto;html=1;" edge="1" parent="1" source="liC86JG7QrW3VDQCqqKZ-12" target="liC86JG7QrW3VDQCqqKZ-15">
          <mxGeometry relative="1" as="geometry" />
        </mxCell>
        <mxCell id="liC86JG7QrW3VDQCqqKZ-12" value="Select Destination" style="rounded=0;whiteSpace=wrap;html=1;" vertex="1" parent="1">
          <mxGeometry x="380" y="310" width="120" height="60" as="geometry" />
        </mxCell>
        <mxCell id="liC86JG7QrW3VDQCqqKZ-18" style="edgeStyle=orthogonalEdgeStyle;rounded=0;orthogonalLoop=1;jettySize=auto;html=1;exitX=0.5;exitY=1;exitDx=0;exitDy=0;" edge="1" parent="1" source="liC86JG7QrW3VDQCqqKZ-15" target="liC86JG7QrW3VDQCqqKZ-17">
          <mxGeometry relative="1" as="geometry" />
        </mxCell>
        <mxCell id="liC86JG7QrW3VDQCqqKZ-15" value="Display available van in route to the destination" style="rounded=1;whiteSpace=wrap;html=1;" vertex="1" parent="1">
          <mxGeometry x="380" y="460" width="120" height="60" as="geometry" />
        </mxCell>
        <mxCell id="liC86JG7QrW3VDQCqqKZ-20" style="edgeStyle=orthogonalEdgeStyle;rounded=0;orthogonalLoop=1;jettySize=auto;html=1;exitX=1;exitY=0.5;exitDx=0;exitDy=0;" edge="1" parent="1" source="liC86JG7QrW3VDQCqqKZ-17" target="liC86JG7QrW3VDQCqqKZ-19">
          <mxGeometry relative="1" as="geometry" />
        </mxCell>
        <mxCell id="liC86JG7QrW3VDQCqqKZ-17" value="Select a van and &lt;b&gt;&lt;i&gt;mark as commuter&lt;/i&gt;&lt;/b&gt;" style="rounded=1;whiteSpace=wrap;html=1;" vertex="1" parent="1">
          <mxGeometry x="380" y="610" width="120" height="60" as="geometry" />
        </mxCell>
        <mxCell id="liC86JG7QrW3VDQCqqKZ-19" value="App will notify the commuter that the van is near (atleast 3mins or 200meters away)" style="rounded=0;whiteSpace=wrap;html=1;" vertex="1" parent="1">
          <mxGeometry x="610" y="600" width="120" height="80" as="geometry" />
        </mxCell>
      </root>
    </mxGraphModel>
  </diagram>
  <diagram id="fVoxArqaI66ecea61oHq" name="Van Flow Chart">
    <mxGraphModel dx="1354" dy="735" grid="1" gridSize="10" guides="1" tooltips="1" connect="1" arrows="1" fold="1" page="1" pageScale="1" pageWidth="850" pageHeight="1100" math="0" shadow="0">
      <root>
        <mxCell id="0" />
        <mxCell id="1" parent="0" />
        <mxCell id="gRDN_iiMOQ-uWeiCXF-b-6" style="edgeStyle=orthogonalEdgeStyle;rounded=0;orthogonalLoop=1;jettySize=auto;html=1;" edge="1" parent="1" source="gRDN_iiMOQ-uWeiCXF-b-1" target="gRDN_iiMOQ-uWeiCXF-b-3">
          <mxGeometry relative="1" as="geometry" />
        </mxCell>
        <mxCell id="gRDN_iiMOQ-uWeiCXF-b-19" style="edgeStyle=orthogonalEdgeStyle;rounded=0;orthogonalLoop=1;jettySize=auto;html=1;exitX=1;exitY=0.3333333333333333;exitDx=0;exitDy=0;exitPerimeter=0;entryX=0.5;entryY=0;entryDx=0;entryDy=0;" edge="1" parent="1">
          <mxGeometry relative="1" as="geometry">
            <mxPoint x="185" y="60" as="sourcePoint" />
            <mxPoint x="279.9999999999998" y="160" as="targetPoint" />
          </mxGeometry>
        </mxCell>
        <mxCell id="gRDN_iiMOQ-uWeiCXF-b-1" value="Driver" style="shape=umlActor;verticalLabelPosition=bottom;verticalAlign=top;html=1;outlineConnect=0;" vertex="1" parent="1">
          <mxGeometry x="155" y="30" width="30" height="60" as="geometry" />
        </mxCell>
        <mxCell id="gRDN_iiMOQ-uWeiCXF-b-7" style="edgeStyle=orthogonalEdgeStyle;rounded=0;orthogonalLoop=1;jettySize=auto;html=1;exitX=0.5;exitY=1;exitDx=0;exitDy=0;entryX=0.5;entryY=0;entryDx=0;entryDy=0;" edge="1" parent="1" source="gRDN_iiMOQ-uWeiCXF-b-3" target="gRDN_iiMOQ-uWeiCXF-b-5">
          <mxGeometry relative="1" as="geometry" />
        </mxCell>
        <mxCell id="gRDN_iiMOQ-uWeiCXF-b-3" value="Set Route" style="rounded=1;whiteSpace=wrap;html=1;" vertex="1" parent="1">
          <mxGeometry x="20" y="150" width="120" height="60" as="geometry" />
        </mxCell>
        <mxCell id="gRDN_iiMOQ-uWeiCXF-b-10" style="edgeStyle=orthogonalEdgeStyle;rounded=0;orthogonalLoop=1;jettySize=auto;html=1;entryX=0.5;entryY=0;entryDx=0;entryDy=0;" edge="1" parent="1" source="gRDN_iiMOQ-uWeiCXF-b-4" target="gRDN_iiMOQ-uWeiCXF-b-9">
          <mxGeometry relative="1" as="geometry" />
        </mxCell>
        <mxCell id="gRDN_iiMOQ-uWeiCXF-b-4" value="Set vaccant sits" style="rounded=1;whiteSpace=wrap;html=1;" vertex="1" parent="1">
          <mxGeometry x="20" y="399" width="120" height="60" as="geometry" />
        </mxCell>
        <mxCell id="gRDN_iiMOQ-uWeiCXF-b-8" style="edgeStyle=orthogonalEdgeStyle;rounded=0;orthogonalLoop=1;jettySize=auto;html=1;exitX=0.5;exitY=1;exitDx=0;exitDy=0;entryX=0.5;entryY=0;entryDx=0;entryDy=0;" edge="1" parent="1" source="gRDN_iiMOQ-uWeiCXF-b-5" target="gRDN_iiMOQ-uWeiCXF-b-4">
          <mxGeometry relative="1" as="geometry" />
        </mxCell>
        <mxCell id="gRDN_iiMOQ-uWeiCXF-b-5" value="Queue Terminal" style="rounded=1;whiteSpace=wrap;html=1;" vertex="1" parent="1">
          <mxGeometry x="20" y="269" width="120" height="60" as="geometry" />
        </mxCell>
        <mxCell id="gRDN_iiMOQ-uWeiCXF-b-29" style="edgeStyle=orthogonalEdgeStyle;rounded=0;orthogonalLoop=1;jettySize=auto;html=1;exitX=0.5;exitY=1;exitDx=0;exitDy=0;entryX=0.5;entryY=0;entryDx=0;entryDy=0;" edge="1" parent="1" source="gRDN_iiMOQ-uWeiCXF-b-9" target="gRDN_iiMOQ-uWeiCXF-b-28">
          <mxGeometry relative="1" as="geometry" />
        </mxCell>
        <mxCell id="gRDN_iiMOQ-uWeiCXF-b-9" value="In Route" style="rounded=0;whiteSpace=wrap;html=1;" vertex="1" parent="1">
          <mxGeometry x="20" y="520" width="120" height="60" as="geometry" />
        </mxCell>
        <mxCell id="gRDN_iiMOQ-uWeiCXF-b-21" style="edgeStyle=orthogonalEdgeStyle;rounded=0;orthogonalLoop=1;jettySize=auto;html=1;entryX=0.5;entryY=0;entryDx=0;entryDy=0;" edge="1" parent="1" source="gRDN_iiMOQ-uWeiCXF-b-11" target="gRDN_iiMOQ-uWeiCXF-b-14">
          <mxGeometry relative="1" as="geometry" />
        </mxCell>
        <mxCell id="gRDN_iiMOQ-uWeiCXF-b-22" style="edgeStyle=orthogonalEdgeStyle;rounded=0;orthogonalLoop=1;jettySize=auto;html=1;entryX=0.5;entryY=0;entryDx=0;entryDy=0;" edge="1" parent="1" source="gRDN_iiMOQ-uWeiCXF-b-11" target="gRDN_iiMOQ-uWeiCXF-b-15">
          <mxGeometry relative="1" as="geometry" />
        </mxCell>
        <mxCell id="gRDN_iiMOQ-uWeiCXF-b-11" value="Dispatcher" style="shape=umlActor;verticalLabelPosition=bottom;verticalAlign=top;html=1;outlineConnect=0;" vertex="1" parent="1">
          <mxGeometry x="660" y="30" width="30" height="60" as="geometry" />
        </mxCell>
        <mxCell id="gRDN_iiMOQ-uWeiCXF-b-20" style="edgeStyle=orthogonalEdgeStyle;rounded=0;orthogonalLoop=1;jettySize=auto;html=1;exitX=0.5;exitY=1;exitDx=0;exitDy=0;entryX=0.5;entryY=0;entryDx=0;entryDy=0;" edge="1" parent="1" source="gRDN_iiMOQ-uWeiCXF-b-14" target="gRDN_iiMOQ-uWeiCXF-b-16">
          <mxGeometry relative="1" as="geometry" />
        </mxCell>
        <mxCell id="gRDN_iiMOQ-uWeiCXF-b-14" value="View/Set Terminal Queue" style="rounded=0;whiteSpace=wrap;html=1;" vertex="1" parent="1">
          <mxGeometry x="520" y="130" width="120" height="60" as="geometry" />
        </mxCell>
        <mxCell id="gRDN_iiMOQ-uWeiCXF-b-24" style="edgeStyle=orthogonalEdgeStyle;rounded=0;orthogonalLoop=1;jettySize=auto;html=1;exitX=0.5;exitY=1;exitDx=0;exitDy=0;entryX=0.5;entryY=0;entryDx=0;entryDy=0;" edge="1" parent="1" source="gRDN_iiMOQ-uWeiCXF-b-15" target="gRDN_iiMOQ-uWeiCXF-b-23">
          <mxGeometry relative="1" as="geometry" />
        </mxCell>
        <mxCell id="gRDN_iiMOQ-uWeiCXF-b-15" value="View Van Location" style="rounded=0;whiteSpace=wrap;html=1;" vertex="1" parent="1">
          <mxGeometry x="710" y="130" width="120" height="60" as="geometry" />
        </mxCell>
        <mxCell id="gRDN_iiMOQ-uWeiCXF-b-27" style="edgeStyle=orthogonalEdgeStyle;rounded=0;orthogonalLoop=1;jettySize=auto;html=1;exitX=0.5;exitY=1;exitDx=0;exitDy=0;entryX=0.5;entryY=0;entryDx=0;entryDy=0;" edge="1" parent="1" source="gRDN_iiMOQ-uWeiCXF-b-16" target="gRDN_iiMOQ-uWeiCXF-b-26">
          <mxGeometry relative="1" as="geometry" />
        </mxCell>
        <mxCell id="gRDN_iiMOQ-uWeiCXF-b-16" value="Set Van Vaccant Sits" style="rounded=1;whiteSpace=wrap;html=1;" vertex="1" parent="1">
          <mxGeometry x="520" y="260" width="120" height="60" as="geometry" />
        </mxCell>
        <mxCell id="gRDN_iiMOQ-uWeiCXF-b-17" value="Notify/Message Van" style="rounded=1;whiteSpace=wrap;html=1;" vertex="1" parent="1">
          <mxGeometry x="710" y="390" width="120" height="60" as="geometry" />
        </mxCell>
        <mxCell id="gRDN_iiMOQ-uWeiCXF-b-18" value="Auto Queue when arriving at the terminal" style="rounded=0;whiteSpace=wrap;html=1;" vertex="1" parent="1">
          <mxGeometry x="220" y="150" width="120" height="60" as="geometry" />
        </mxCell>
        <mxCell id="gRDN_iiMOQ-uWeiCXF-b-25" style="edgeStyle=orthogonalEdgeStyle;rounded=0;orthogonalLoop=1;jettySize=auto;html=1;exitX=0.5;exitY=1;exitDx=0;exitDy=0;entryX=0.5;entryY=0;entryDx=0;entryDy=0;" edge="1" parent="1" source="gRDN_iiMOQ-uWeiCXF-b-23" target="gRDN_iiMOQ-uWeiCXF-b-17">
          <mxGeometry relative="1" as="geometry" />
        </mxCell>
        <mxCell id="gRDN_iiMOQ-uWeiCXF-b-23" value="View Van vaccant sits" style="rounded=1;whiteSpace=wrap;html=1;" vertex="1" parent="1">
          <mxGeometry x="710" y="260" width="120" height="60" as="geometry" />
        </mxCell>
        <mxCell id="gRDN_iiMOQ-uWeiCXF-b-26" value="Dispatch Van" style="rounded=1;whiteSpace=wrap;html=1;" vertex="1" parent="1">
          <mxGeometry x="520" y="390" width="120" height="60" as="geometry" />
        </mxCell>
        <mxCell id="gRDN_iiMOQ-uWeiCXF-b-31" style="edgeStyle=orthogonalEdgeStyle;rounded=0;orthogonalLoop=1;jettySize=auto;html=1;" edge="1" parent="1" source="gRDN_iiMOQ-uWeiCXF-b-28" target="gRDN_iiMOQ-uWeiCXF-b-30">
          <mxGeometry relative="1" as="geometry" />
        </mxCell>
        <mxCell id="gRDN_iiMOQ-uWeiCXF-b-28" value="Live Map with commuters marker" style="rounded=1;whiteSpace=wrap;html=1;" vertex="1" parent="1">
          <mxGeometry x="20" y="650" width="120" height="60" as="geometry" />
        </mxCell>
        <mxCell id="gRDN_iiMOQ-uWeiCXF-b-30" value="Notify when commuter is nearby" style="rounded=0;whiteSpace=wrap;html=1;" vertex="1" parent="1">
          <mxGeometry x="20" y="790" width="120" height="60" as="geometry" />
        </mxCell>
      </root>
    </mxGraphModel>
  </diagram>
</mxfile>
